<?xml version="1.0" encoding="UTF-8"?><svg xmlns="http://www.w3.org/2000/svg" xmlns:xlink="http://www.w3.org/1999/xlink" fill-opacity="1" color-rendering="auto" color-interpolation="auto" text-rendering="auto" stroke="black" stroke-linecap="square" width="706" stroke-miterlimit="10" shape-rendering="auto" stroke-opacity="1" fill="black" stroke-dasharray="none" font-weight="normal" stroke-width="1" height="703" font-family="'Dialog'" font-style="normal" stroke-linejoin="miter" font-size="12px" stroke-dashoffset="0" image-rendering="auto">
  <!--Generated by ySVG 2.6-->
  <defs id="genericDefs"/>
  <g>
    <defs id="defs1">
      <linearGradient x1="316" gradientUnits="userSpaceOnUse" x2="396" y1="81.5" y2="121.5" id="linearGradient1" spreadMethod="reflect">
        <stop stop-opacity="1" stop-color="rgb(255,153,204)" offset="0%"/>
        <stop stop-opacity="1" stop-color="white" offset="100%"/>
      </linearGradient>
      <linearGradient x1="500" gradientUnits="userSpaceOnUse" x2="624" y1="56.5" y2="146.5" id="linearGradient2" spreadMethod="reflect">
        <stop stop-opacity="1" stop-color="silver" offset="0%"/>
        <stop stop-opacity="1" stop-color="white" offset="100%"/>
      </linearGradient>
      <linearGradient x1="500" gradientUnits="userSpaceOnUse" x2="580" y1="169" y2="207.5" id="linearGradient3" spreadMethod="reflect">
        <stop stop-opacity="1" stop-color="silver" offset="0%"/>
        <stop stop-opacity="1" stop-color="white" offset="100%"/>
      </linearGradient>
      <linearGradient x1="316" gradientUnits="userSpaceOnUse" x2="396" y1="168.25" y2="208.25" id="linearGradient4" spreadMethod="reflect">
        <stop stop-opacity="1" stop-color="rgb(255,153,204)" offset="0%"/>
        <stop stop-opacity="1" stop-color="white" offset="100%"/>
      </linearGradient>
      <linearGradient x1="500" gradientUnits="userSpaceOnUse" x2="580" y1="441.25" y2="479.75" id="linearGradient5" spreadMethod="reflect">
        <stop stop-opacity="1" stop-color="silver" offset="0%"/>
        <stop stop-opacity="1" stop-color="white" offset="100%"/>
      </linearGradient>
      <linearGradient x1="316" gradientUnits="userSpaceOnUse" x2="396" y1="440.5" y2="480.5" id="linearGradient6" spreadMethod="reflect">
        <stop stop-opacity="1" stop-color="rgb(255,153,204)" offset="0%"/>
        <stop stop-opacity="1" stop-color="white" offset="100%"/>
      </linearGradient>
      <linearGradient x1="309.875" gradientUnits="userSpaceOnUse" x2="405.875" y1="554" y2="572" id="linearGradient7" spreadMethod="reflect">
        <stop stop-opacity="1" stop-color="rgb(51,102,255)" offset="0%"/>
        <stop stop-opacity="1" stop-color="white" offset="100%"/>
      </linearGradient>
      <linearGradient x1="317.875" gradientUnits="userSpaceOnUse" x2="397.875" y1="618" y2="658" id="linearGradient8" spreadMethod="reflect">
        <stop stop-opacity="1" stop-color="rgb(255,153,204)" offset="0%"/>
        <stop stop-opacity="1" stop-color="white" offset="100%"/>
      </linearGradient>
      <linearGradient x1="500" gradientUnits="userSpaceOnUse" x2="624" y1="587" y2="689" id="linearGradient9" spreadMethod="reflect">
        <stop stop-opacity="1" stop-color="silver" offset="0%"/>
        <stop stop-opacity="1" stop-color="white" offset="100%"/>
      </linearGradient>
      <clipPath clipPathUnits="userSpaceOnUse" id="clipPath1">
        <path d="M0 0 L706 0 L706 703 L0 703 L0 0 Z"/>
      </clipPath>
      <clipPath clipPathUnits="userSpaceOnUse" id="clipPath2">
        <path d="M23 41 L729 41 L729 744 L23 744 L23 41 Z"/>
      </clipPath>
    </defs>
    <g fill="white" text-rendering="geometricPrecision" shape-rendering="geometricPrecision" transform="translate(-23,-41)" stroke="white">
      <rect x="23" width="706" height="703" y="41" clip-path="url(#clipPath2)" stroke="none"/>
    </g>
    <g fill="rgb(255,255,153)" text-rendering="geometricPrecision" shape-rendering="geometricPrecision" transform="matrix(1,0,0,1,-23,-41)" stroke="rgb(255,255,153)">
      <path d="M159 81.5 L277 81.5 L277 121.5 L159 121.5 Z" stroke="none" clip-path="url(#clipPath2)"/>
    </g>
    <g text-rendering="geometricPrecision" stroke-miterlimit="1.45" shape-rendering="geometricPrecision" transform="matrix(1,0,0,1,-23,-41)" stroke-linecap="butt">
      <path fill="none" d="M159 81.5 L277 81.5 L277 121.5 L159 121.5 Z" clip-path="url(#clipPath2)"/>
      <text x="180.4648" xml:space="preserve" y="106.0352" clip-path="url(#clipPath2)" font-family="sans-serif" stroke="none">WorkHandler</text>
    </g>
    <g fill="url(#linearGradient1)" text-rendering="geometricPrecision" shape-rendering="geometricPrecision" transform="matrix(1,0,0,1,-23,-41)" stroke="url(#linearGradient1)">
      <rect x="316" width="80" height="40" y="81.5" clip-path="url(#clipPath2)" stroke="none"/>
    </g>
    <g text-rendering="geometricPrecision" stroke-miterlimit="1.45" shape-rendering="geometricPrecision" transform="matrix(1,0,0,1,-23,-41)" stroke-linecap="butt">
      <rect fill="none" x="316" width="80" height="40" y="81.5" clip-path="url(#clipPath2)"/>
      <path fill="none" d="M326 81.5 L326 121.5 M386 81.5 L386 121.5 M326 81.5 Z" clip-path="url(#clipPath2)"/>
      <text x="332.7178" xml:space="preserve" y="106.0352" clip-path="url(#clipPath2)" font-family="sans-serif" stroke="none">Request</text>
    </g>
    <g fill="url(#linearGradient2)" text-rendering="geometricPrecision" shape-rendering="geometricPrecision" transform="matrix(1,0,0,1,-23,-41)" stroke="url(#linearGradient2)">
      <path d="M522.95 56.5 L624 56.5 L601.05 146.5 L500 146.5 Z" stroke="none" clip-path="url(#clipPath2)"/>
    </g>
    <g text-rendering="geometricPrecision" stroke-miterlimit="1.45" shape-rendering="geometricPrecision" transform="matrix(1,0,0,1,-23,-41)" stroke-linecap="butt">
      <path fill="none" d="M522.95 56.5 L624 56.5 L601.05 146.5 L500 146.5 Z" clip-path="url(#clipPath2)"/>
      <text x="549.3232" xml:space="preserve" y="77.7695" clip-path="url(#clipPath2)" font-family="sans-serif" stroke="none">date</text>
      <text x="554.0869" xml:space="preserve" y="91.9023" clip-path="url(#clipPath2)" font-family="sans-serif" stroke="none">uri</text>
      <text x="556.4893" xml:space="preserve" y="106.0352" clip-path="url(#clipPath2)" font-family="sans-serif" stroke="none">ip</text>
      <text x="524.793" xml:space="preserve" y="120.168" clip-path="url(#clipPath2)" font-family="sans-serif" stroke="none">sessionUser?</text>
      <text x="538.8994" xml:space="preserve" y="134.3008" clip-path="url(#clipPath2)" font-family="sans-serif" stroke="none">creator?</text>
    </g>
    <g text-rendering="geometricPrecision" stroke-miterlimit="1.45" shape-rendering="geometricPrecision" transform="matrix(1,0,0,1,-23,-41)" stroke-linecap="butt">
      <path fill="none" d="M218 231 L277 257 L218 283 L159 257 Z" clip-path="url(#clipPath2)"/>
      <text x="183.7256" xml:space="preserve" y="261.5352" clip-path="url(#clipPath2)" font-family="sans-serif" stroke="none">hasCreator?</text>
    </g>
    <g fill="rgb(153,51,102)" text-rendering="geometricPrecision" shape-rendering="geometricPrecision" transform="matrix(1,0,0,1,-23,-41)" stroke="rgb(153,51,102)">
      <circle r="9.25" clip-path="url(#clipPath2)" cx="218" cy="238.5" stroke="none"/>
    </g>
    <g stroke-linecap="butt" transform="matrix(1,0,0,1,-23,-41)" fill="white" text-rendering="geometricPrecision" shape-rendering="geometricPrecision" stroke="white" stroke-miterlimit="1.45">
      <circle fill="none" r="9.25" clip-path="url(#clipPath2)" cx="218" cy="238.5"/>
      <text x="214.2061" xml:space="preserve" y="243.0352" clip-path="url(#clipPath2)" font-family="sans-serif" stroke="none">4</text>
    </g>
    <g text-rendering="geometricPrecision" stroke-miterlimit="1.45" shape-rendering="geometricPrecision" transform="matrix(1,0,0,1,-23,-41)" stroke-linecap="butt">
      <path fill="none" d="M375 231 L434 257 L375 283 L316 257 Z" clip-path="url(#clipPath2)"/>
      <text x="354.4307" xml:space="preserve" y="254.4688" clip-path="url(#clipPath2)" font-family="sans-serif" stroke="none">creator</text>
      <text x="351.1113" xml:space="preserve" y="268.6016" clip-path="url(#clipPath2)" font-family="sans-serif" stroke="none">from id?</text>
    </g>
    <g text-rendering="geometricPrecision" stroke-miterlimit="1.45" shape-rendering="geometricPrecision" transform="matrix(1,0,0,1,-23,-41)" stroke-linecap="butt">
      <path fill="none" d="M218 345 L277 371 L218 397 L159 371 Z" clip-path="url(#clipPath2)"/>
      <text x="197.9316" xml:space="preserve" y="368.4688" clip-path="url(#clipPath2)" font-family="sans-serif" stroke="none">act ==</text>
      <text x="201.1982" xml:space="preserve" y="382.6016" clip-path="url(#clipPath2)" font-family="sans-serif" stroke="none">work?</text>
    </g>
    <g fill="url(#linearGradient3)" text-rendering="geometricPrecision" shape-rendering="geometricPrecision" transform="matrix(1,0,0,1,-23,-41)" stroke="url(#linearGradient3)">
      <path d="M509.8175 169 L580 169 L570.1825 207.5 L500 207.5 Z" stroke="none" clip-path="url(#clipPath2)"/>
    </g>
    <g text-rendering="geometricPrecision" stroke-miterlimit="1.45" shape-rendering="geometricPrecision" transform="matrix(1,0,0,1,-23,-41)" stroke-linecap="butt">
      <path fill="none" d="M509.8175 169 L580 169 L570.1825 207.5 L500 207.5 Z" clip-path="url(#clipPath2)"/>
      <text x="519.4307" xml:space="preserve" y="192.7852" clip-path="url(#clipPath2)" font-family="sans-serif" stroke="none">creator</text>
    </g>
    <g fill="rgb(170,136,113)" text-rendering="geometricPrecision" shape-rendering="geometricPrecision" transform="matrix(1,0,0,1,-23,-41)" stroke="rgb(170,136,113)">
      <path d="M654 112.2 C655.8 95.5 712.2 95.5 714 112.2 L714 162.3 C712.2 179 655.8 179 654 162.3 Z" stroke="none" clip-path="url(#clipPath2)"/>
    </g>
    <g stroke-linecap="butt" transform="matrix(1,0,0,1,-23,-41)" fill="white" text-rendering="geometricPrecision" shape-rendering="geometricPrecision" stroke="white" stroke-miterlimit="1.45">
      <path fill="none" d="M654 112.2 C655.8 95.5 712.2 95.5 714 112.2 L714 162.3 C712.2 179 655.8 179 654 162.3 Z" clip-path="url(#clipPath2)"/>
      <path fill="none" d="M714 112.2 C712.2 128.9 655.8 128.9 654 112.2" clip-path="url(#clipPath2)"/>
      <text x="663.4307" xml:space="preserve" y="134.7188" clip-path="url(#clipPath2)" font-family="sans-serif" stroke="none">creator</text>
      <text x="669.2139" xml:space="preserve" y="148.8516" clip-path="url(#clipPath2)" font-family="sans-serif" stroke="none">store</text>
    </g>
    <g text-rendering="geometricPrecision" shape-rendering="geometricPrecision" transform="matrix(1,0,0,1,-23,-41)">
      <path d="M461.5 182.25 L474 188.25 L461.5 194.25 L449 188.25 Z" stroke="none" clip-path="url(#clipPath2)"/>
      <path fill="none" stroke-miterlimit="1.45" d="M461.5 182.25 L474 188.25 L461.5 194.25 L449 188.25 Z" clip-path="url(#clipPath2)" stroke-linecap="butt"/>
    </g>
    <g fill="url(#linearGradient4)" text-rendering="geometricPrecision" shape-rendering="geometricPrecision" transform="matrix(1,0,0,1,-23,-41)" stroke="url(#linearGradient4)">
      <rect x="316" width="80" height="40" y="168.25" clip-path="url(#clipPath2)" stroke="none"/>
    </g>
    <g text-rendering="geometricPrecision" stroke-miterlimit="1.45" shape-rendering="geometricPrecision" transform="matrix(1,0,0,1,-23,-41)" stroke-linecap="butt">
      <rect fill="none" x="316" width="80" height="40" y="168.25" clip-path="url(#clipPath2)"/>
      <path fill="none" d="M326 168.25 L326 208.25 M386 168.25 L386 208.25 M326 168.25 Z" clip-path="url(#clipPath2)"/>
      <text x="332.7178" xml:space="preserve" y="192.7852" clip-path="url(#clipPath2)" font-family="sans-serif" stroke="none">Request</text>
    </g>
    <g fill="red" text-rendering="geometricPrecision" shape-rendering="geometricPrecision" transform="matrix(1,0,0,1,-23,-41)" stroke="red">
      <circle r="9.25" clip-path="url(#clipPath2)" cx="375" cy="235.5" stroke="none"/>
    </g>
    <g stroke-linecap="butt" transform="matrix(1,0,0,1,-23,-41)" fill="white" text-rendering="geometricPrecision" shape-rendering="geometricPrecision" stroke="white" stroke-miterlimit="1.45">
      <circle fill="none" r="9.25" clip-path="url(#clipPath2)" cx="375" cy="235.5"/>
      <text x="371.2061" xml:space="preserve" y="240.0352" clip-path="url(#clipPath2)" font-family="sans-serif" stroke="none">2</text>
    </g>
    <g fill="rgb(255,255,153)" text-rendering="geometricPrecision" shape-rendering="geometricPrecision" transform="matrix(1,0,0,1,-23,-41)" stroke="rgb(255,255,153)">
      <path d="M354.5 300 L395.5 300 L395.5 319 L354.5 319 Z" stroke="none" clip-path="url(#clipPath2)"/>
    </g>
    <g text-rendering="geometricPrecision" stroke-miterlimit="1.45" shape-rendering="geometricPrecision" transform="matrix(1,0,0,1,-23,-41)" stroke-linecap="butt">
      <path fill="none" d="M354.5 300 L395.5 300 L395.5 319 L354.5 319 Z" clip-path="url(#clipPath2)"/>
      <text x="362.0098" xml:space="preserve" y="314.0352" clip-path="url(#clipPath2)" font-family="sans-serif" stroke="none">next</text>
    </g>
    <g text-rendering="geometricPrecision" stroke-miterlimit="1.45" shape-rendering="geometricPrecision" transform="matrix(1,0,0,1,-23,-41)" stroke-linecap="butt">
      <path fill="none" d="M218 434.5 L277 460.5 L218 486.5 L159 460.5 Z" clip-path="url(#clipPath2)"/>
      <text x="194.9199" xml:space="preserve" y="457.9688" clip-path="url(#clipPath2)" font-family="sans-serif" stroke="none">work by</text>
      <text x="198.9688" xml:space="preserve" y="472.1016" clip-path="url(#clipPath2)" font-family="sans-serif" stroke="none">RESID?</text>
    </g>
    <g fill="red" text-rendering="geometricPrecision" shape-rendering="geometricPrecision" transform="matrix(1,0,0,1,-23,-41)" stroke="red">
      <circle r="9.25" clip-path="url(#clipPath2)" cx="218" cy="439" stroke="none"/>
    </g>
    <g stroke-linecap="butt" transform="matrix(1,0,0,1,-23,-41)" fill="white" text-rendering="geometricPrecision" shape-rendering="geometricPrecision" stroke="white" stroke-miterlimit="1.45">
      <circle fill="none" r="9.25" clip-path="url(#clipPath2)" cx="218" cy="439"/>
      <text x="214.2061" xml:space="preserve" y="443.5352" clip-path="url(#clipPath2)" font-family="sans-serif" stroke="none">2</text>
    </g>
    <g fill="url(#linearGradient5)" text-rendering="geometricPrecision" shape-rendering="geometricPrecision" transform="matrix(1,0,0,1,-23,-41)" stroke="url(#linearGradient5)">
      <path d="M509.8175 441.25 L580 441.25 L570.1825 479.75 L500 479.75 Z" stroke="none" clip-path="url(#clipPath2)"/>
    </g>
    <g text-rendering="geometricPrecision" stroke-miterlimit="1.45" shape-rendering="geometricPrecision" transform="matrix(1,0,0,1,-23,-41)" stroke-linecap="butt">
      <path fill="none" d="M509.8175 441.25 L580 441.25 L570.1825 479.75 L500 479.75 Z" clip-path="url(#clipPath2)"/>
      <text x="525.7295" xml:space="preserve" y="465.0352" clip-path="url(#clipPath2)" font-family="sans-serif" stroke="none">work</text>
    </g>
    <g fill="rgb(170,136,113)" text-rendering="geometricPrecision" shape-rendering="geometricPrecision" transform="matrix(1,0,0,1,-23,-41)" stroke="rgb(170,136,113)">
      <path d="M654 384.45 C655.8 367.75 712.2 367.75 714 384.45 L714 434.55 C712.2 451.25 655.8 451.25 654 434.55 Z" stroke="none" clip-path="url(#clipPath2)"/>
    </g>
    <g stroke-linecap="butt" transform="matrix(1,0,0,1,-23,-41)" fill="white" text-rendering="geometricPrecision" shape-rendering="geometricPrecision" stroke="white" stroke-miterlimit="1.45">
      <path fill="none" d="M654 384.45 C655.8 367.75 712.2 367.75 714 384.45 L714 434.55 C712.2 451.25 655.8 451.25 654 434.55 Z" clip-path="url(#clipPath2)"/>
      <path fill="none" d="M714 384.45 C712.2 401.15 655.8 401.15 654 384.45" clip-path="url(#clipPath2)"/>
      <text x="669.7295" xml:space="preserve" y="406.9688" clip-path="url(#clipPath2)" font-family="sans-serif" stroke="none">work</text>
      <text x="669.2139" xml:space="preserve" y="421.1016" clip-path="url(#clipPath2)" font-family="sans-serif" stroke="none">store</text>
    </g>
    <g fill="url(#linearGradient6)" text-rendering="geometricPrecision" shape-rendering="geometricPrecision" transform="matrix(1,0,0,1,-23,-41)" stroke="url(#linearGradient6)">
      <rect x="316" width="80" height="40" y="440.5" clip-path="url(#clipPath2)" stroke="none"/>
    </g>
    <g text-rendering="geometricPrecision" stroke-miterlimit="1.45" shape-rendering="geometricPrecision" transform="matrix(1,0,0,1,-23,-41)" stroke-linecap="butt">
      <rect fill="none" x="316" width="80" height="40" y="440.5" clip-path="url(#clipPath2)"/>
      <path fill="none" d="M326 440.5 L326 480.5 M386 440.5 L386 480.5 M326 440.5 Z" clip-path="url(#clipPath2)"/>
      <text x="332.7178" xml:space="preserve" y="465.0352" clip-path="url(#clipPath2)" font-family="sans-serif" stroke="none">Request</text>
    </g>
    <g text-rendering="geometricPrecision" shape-rendering="geometricPrecision" transform="matrix(1,0,0,1,-23,-41)">
      <path d="M426.75 454.5 L439.25 460.5 L426.75 466.5 L414.25 460.5 Z" stroke="none" clip-path="url(#clipPath2)"/>
      <path fill="none" stroke-miterlimit="1.45" d="M426.75 454.5 L439.25 460.5 L426.75 466.5 L414.25 460.5 Z" clip-path="url(#clipPath2)" stroke-linecap="butt"/>
    </g>
    <g fill="rgb(51,153,102)" text-rendering="geometricPrecision" shape-rendering="geometricPrecision" transform="matrix(1,0,0,1,-23,-41)" stroke="rgb(51,153,102)">
      <rect x="178" y="619" clip-path="url(#clipPath2)" width="80" rx="20" ry="20" height="40" stroke="none"/>
    </g>
    <g text-rendering="geometricPrecision" stroke-miterlimit="1.45" shape-rendering="geometricPrecision" transform="matrix(1,0,0,1,-23,-41)" stroke-linecap="butt">
      <rect x="178" y="619" clip-path="url(#clipPath2)" fill="none" width="80" rx="20" ry="20" height="40"/>
      <text x="187.6572" y="643.5352" clip-path="url(#clipPath2)" fill="white" font-family="sans-serif" stroke="none" xml:space="preserve">work page</text>
    </g>
    <g text-rendering="geometricPrecision" stroke-miterlimit="1.45" shape-rendering="geometricPrecision" transform="matrix(1,0,0,1,-23,-41)" stroke-linecap="butt">
      <path fill="none" d="M218 537 L277 563 L218 589 L159 563 Z" clip-path="url(#clipPath2)"/>
      <text x="188.0938" xml:space="preserve" y="567.5352" clip-path="url(#clipPath2)" font-family="sans-serif" stroke="none">canonical?</text>
    </g>
    <g fill="url(#linearGradient7)" text-rendering="geometricPrecision" shape-rendering="geometricPrecision" transform="matrix(1,0,0,1,-23,-41)" stroke="url(#linearGradient7)">
      <rect x="309.875" y="554" clip-path="url(#clipPath2)" width="96" rx="9" ry="9" height="18" stroke="none"/>
    </g>
    <g text-rendering="geometricPrecision" stroke-miterlimit="1.45" shape-rendering="geometricPrecision" transform="matrix(1,0,0,1,-23,-41)" stroke-linecap="butt">
      <rect x="309.875" y="554" clip-path="url(#clipPath2)" fill="none" width="96" rx="9" ry="9" height="18"/>
      <text x="320.3604" xml:space="preserve" y="567.5352" clip-path="url(#clipPath2)" font-family="sans-serif" stroke="none">-&gt; canonical</text>
    </g>
    <g fill="rgb(153,204,0)" text-rendering="geometricPrecision" shape-rendering="geometricPrecision" transform="matrix(1,0,0,1,-23,-41)" stroke="rgb(153,204,0)">
      <circle r="9.25" clip-path="url(#clipPath2)" cx="218" cy="544" stroke="none"/>
    </g>
    <g stroke-linecap="butt" transform="matrix(1,0,0,1,-23,-41)" fill="white" text-rendering="geometricPrecision" shape-rendering="geometricPrecision" stroke="white" stroke-miterlimit="1.45">
      <circle fill="none" r="9.25" clip-path="url(#clipPath2)" cx="218" cy="544"/>
      <text x="214.2061" xml:space="preserve" y="548.5352" clip-path="url(#clipPath2)" font-family="sans-serif" stroke="none">3</text>
    </g>
    <g fill="rgb(255,255,153)" text-rendering="geometricPrecision" shape-rendering="geometricPrecision" transform="matrix(1,0,0,1,-23,-41)" stroke="rgb(255,255,153)">
      <path d="M38 689 L156 689 L156 729 L38 729 Z" stroke="none" clip-path="url(#clipPath2)"/>
    </g>
    <g text-rendering="geometricPrecision" stroke-miterlimit="1.45" shape-rendering="geometricPrecision" transform="matrix(1,0,0,1,-23,-41)" stroke-linecap="butt">
      <path fill="none" d="M38 689 L156 689 L156 729 L38 729 Z" clip-path="url(#clipPath2)"/>
      <text x="77.3418" xml:space="preserve" y="706.4688" clip-path="url(#clipPath2)" font-family="sans-serif" stroke="none">next =</text>
      <text x="45.7568" xml:space="preserve" y="720.6016" clip-path="url(#clipPath2)" font-family="sans-serif" stroke="none">NotFoundHandler</text>
    </g>
    <g fill="url(#linearGradient8)" text-rendering="geometricPrecision" shape-rendering="geometricPrecision" transform="matrix(1,0,0,1,-23,-41)" stroke="url(#linearGradient8)">
      <rect x="317.875" width="80" height="40" y="618" clip-path="url(#clipPath2)" stroke="none"/>
    </g>
    <g text-rendering="geometricPrecision" stroke-miterlimit="1.45" shape-rendering="geometricPrecision" transform="matrix(1,0,0,1,-23,-41)" stroke-linecap="butt">
      <rect fill="none" x="317.875" width="80" height="40" y="618" clip-path="url(#clipPath2)"/>
      <path fill="none" d="M327.875 618 L327.875 658 M387.875 618 L387.875 658 M327.875 618 Z" clip-path="url(#clipPath2)"/>
      <text x="334.5928" xml:space="preserve" y="642.5352" clip-path="url(#clipPath2)" font-family="sans-serif" stroke="none">Request</text>
    </g>
    <g fill="url(#linearGradient9)" text-rendering="geometricPrecision" shape-rendering="geometricPrecision" transform="matrix(1,0,0,1,-23,-41)" stroke="url(#linearGradient9)">
      <path d="M526.01 587 L624 587 L597.99 689 L500 689 Z" stroke="none" clip-path="url(#clipPath2)"/>
    </g>
    <g text-rendering="geometricPrecision" stroke-miterlimit="1.45" shape-rendering="geometricPrecision" transform="matrix(1,0,0,1,-23,-41)" stroke-linecap="butt">
      <path fill="none" d="M526.01 587 L624 587 L597.99 689 L500 689 Z" clip-path="url(#clipPath2)"/>
      <text x="549.3232" xml:space="preserve" y="607.2031" clip-path="url(#clipPath2)" font-family="sans-serif" stroke="none">date</text>
      <text x="554.0869" xml:space="preserve" y="621.3359" clip-path="url(#clipPath2)" font-family="sans-serif" stroke="none">uri</text>
      <text x="556.4893" xml:space="preserve" y="635.4688" clip-path="url(#clipPath2)" font-family="sans-serif" stroke="none">ip</text>
      <text x="524.793" xml:space="preserve" y="649.6016" clip-path="url(#clipPath2)" font-family="sans-serif" stroke="none">sessionUser?</text>
      <text x="541.4307" xml:space="preserve" y="663.7344" clip-path="url(#clipPath2)" font-family="sans-serif" stroke="none">creator</text>
      <text x="547.7295" xml:space="preserve" y="677.8672" clip-path="url(#clipPath2)" font-family="sans-serif" stroke="none">work</text>
    </g>
    <g text-rendering="geometricPrecision" stroke-miterlimit="1.45" shape-rendering="geometricPrecision" transform="matrix(1,0,0,1,-23,-41)" stroke-linecap="butt">
      <path fill="none" d="M276.9937 101.5 L315.9953 101.5" clip-path="url(#clipPath2)"/>
    </g>
    <g text-rendering="geometricPrecision" stroke-miterlimit="1.45" shape-rendering="geometricPrecision" transform="matrix(1,0,0,1,-23,-41)" stroke-linecap="butt">
      <path fill="none" d="M396.0081 101.5 L511.4648 101.5" clip-path="url(#clipPath2)"/>
      <path fill="none" d="M218 121.507 L218 231.0327" clip-path="url(#clipPath2)"/>
      <path fill="none" d="M276.99 257 L315.993 257" clip-path="url(#clipPath2)"/>
      <text x="275.5908" xml:space="preserve" y="250.5352" clip-path="url(#clipPath2)" font-family="sans-serif" stroke="none">no</text>
      <path fill="none" d="M218 283.0229 L218 345.0107" clip-path="url(#clipPath2)"/>
      <text x="191.4639" xml:space="preserve" y="302.5352" clip-path="url(#clipPath2)" font-family="sans-serif" stroke="none">yes</text>
      <path fill="none" d="M434.0042 257 L461.5 257 L461.5 331 L218 331 L218 345.0234" clip-path="url(#clipPath2)"/>
      <text x="435.4639" xml:space="preserve" y="248.5352" clip-path="url(#clipPath2)" font-family="sans-serif" stroke="none">yes</text>
      <path fill="none" d="M575.1211 188.25 L684 188.25 L684 174.8525" clip-path="url(#clipPath2)"/>
      <path fill="none" d="M434.0042 257 L461.5 257 L461.5 194.2589" clip-path="url(#clipPath2)"/>
      <path fill="none" d="M356 121.5355 L356 168.2813" clip-path="url(#clipPath2)"/>
      <path fill="none" d="M396.0254 188.25 L504.8851 188.25" clip-path="url(#clipPath2)"/>
      <path fill="none" d="M375 283.0193 L375 300.0094" clip-path="url(#clipPath2)"/>
      <text x="378.5908" xml:space="preserve" y="296.5352" clip-path="url(#clipPath2)" font-family="sans-serif" stroke="none">no</text>
      <path fill="none" d="M218 396.998 L218 429.7711" clip-path="url(#clipPath2)"/>
      <text x="192.4639" xml:space="preserve" y="415.5352" clip-path="url(#clipPath2)" font-family="sans-serif" stroke="none">yes</text>
      <path fill="none" d="M575.1211 460.5 L684 460.5 L684 447.1025" clip-path="url(#clipPath2)"/>
      <path fill="none" d="M396.0254 460.5 L504.8851 460.5" clip-path="url(#clipPath2)"/>
      <path fill="none" d="M218 486.5098 L218 506.5 L426.75 506.5 L426.75 466.4746" clip-path="url(#clipPath2)"/>
      <path fill="none" d="M218 486.5004 L218 536.9647" clip-path="url(#clipPath2)"/>
      <text x="190.4639" xml:space="preserve" y="503.5352" clip-path="url(#clipPath2)" font-family="sans-serif" stroke="none">yes</text>
      <path fill="none" d="M218 589.0137 L218 619.0347" clip-path="url(#clipPath2)"/>
      <text x="192.4639" xml:space="preserve" y="602.5352" clip-path="url(#clipPath2)" font-family="sans-serif" stroke="none">yes</text>
      <path fill="none" d="M276.9756 563 L309.8805 563" clip-path="url(#clipPath2)"/>
      <path fill="none" d="M357.875 571.9961 L357.875 591 L265 591 L249.9541 613.8116" clip-path="url(#clipPath2)"/>
      <path d="M245.5493 620.4897 L256.3303 613.2255 L250.5047 612.9768 L247.9826 607.7195 Z" clip-path="url(#clipPath2)" stroke="none"/>
      <path fill="none" d="M159.0066 371 L97 371 L97 688.989" clip-path="url(#clipPath2)"/>
      <path fill="none" d="M159.0066 460.5 L97 460.5 L97 689.0096" clip-path="url(#clipPath2)"/>
      <path fill="none" d="M257.9566 638 L317.9174 638" clip-path="url(#clipPath2)"/>
      <path fill="none" d="M397.8927 638 L513.0002 638" clip-path="url(#clipPath2)"/>
    </g>
  </g>
</svg>
