<?xml version="1.0" encoding="UTF-8"?><svg xmlns="http://www.w3.org/2000/svg" xmlns:xlink="http://www.w3.org/1999/xlink" fill-opacity="1" color-rendering="auto" color-interpolation="auto" text-rendering="auto" stroke="black" stroke-linecap="square" width="733" stroke-miterlimit="10" shape-rendering="auto" stroke-opacity="1" fill="black" stroke-dasharray="none" font-weight="normal" stroke-width="1" height="542" font-family="'Dialog'" font-style="normal" stroke-linejoin="miter" font-size="12px" stroke-dashoffset="0" image-rendering="auto">
  <!--Generated by ySVG 2.6-->
  <defs id="genericDefs"/>
  <g>
    <defs id="defs1">
      <linearGradient x1="338.25" gradientUnits="userSpaceOnUse" x2="418.25" y1="160.75" y2="200.75" id="linearGradient1" spreadMethod="reflect">
        <stop stop-opacity="1" stop-color="rgb(255,153,204)" offset="0%"/>
        <stop stop-opacity="1" stop-color="white" offset="100%"/>
      </linearGradient>
      <linearGradient x1="430.5" gradientUnits="userSpaceOnUse" x2="554.5" y1="135.75" y2="225.75" id="linearGradient2" spreadMethod="reflect">
        <stop stop-opacity="1" stop-color="silver" offset="0%"/>
        <stop stop-opacity="1" stop-color="white" offset="100%"/>
      </linearGradient>
      <linearGradient x1="671" gradientUnits="userSpaceOnUse" x2="767" y1="338.25" y2="356.25" id="linearGradient3" spreadMethod="reflect">
        <stop stop-opacity="1" stop-color="rgb(51,102,255)" offset="0%"/>
        <stop stop-opacity="1" stop-color="white" offset="100%"/>
      </linearGradient>
      <linearGradient x1="452.5" gradientUnits="userSpaceOnUse" x2="532.5" y1="412.125" y2="450.625" id="linearGradient4" spreadMethod="reflect">
        <stop stop-opacity="1" stop-color="silver" offset="0%"/>
        <stop stop-opacity="1" stop-color="white" offset="100%"/>
      </linearGradient>
      <linearGradient x1="596" gradientUnits="userSpaceOnUse" x2="676" y1="412.125" y2="450.625" id="linearGradient5" spreadMethod="reflect">
        <stop stop-opacity="1" stop-color="silver" offset="0%"/>
        <stop stop-opacity="1" stop-color="white" offset="100%"/>
      </linearGradient>
      <linearGradient x1="781" gradientUnits="userSpaceOnUse" x2="905" y1="433.625" y2="535.625" id="linearGradient6" spreadMethod="reflect">
        <stop stop-opacity="1" stop-color="silver" offset="0%"/>
        <stop stop-opacity="1" stop-color="white" offset="100%"/>
      </linearGradient>
      <linearGradient x1="803" gradientUnits="userSpaceOnUse" x2="883" y1="363.625" y2="403.625" id="linearGradient7" spreadMethod="reflect">
        <stop stop-opacity="1" stop-color="rgb(255,153,204)" offset="0%"/>
        <stop stop-opacity="1" stop-color="white" offset="100%"/>
      </linearGradient>
      <clipPath clipPathUnits="userSpaceOnUse" id="clipPath1">
        <path d="M0 0 L733 0 L733 542 L0 542 L0 0 Z"/>
      </clipPath>
      <clipPath clipPathUnits="userSpaceOnUse" id="clipPath2">
        <path d="M187 38 L920 38 L920 580 L187 580 L187 38 Z"/>
      </clipPath>
    </defs>
    <g fill="white" text-rendering="geometricPrecision" shape-rendering="geometricPrecision" transform="translate(-187,-38)" stroke="white">
      <rect x="187" width="733" height="542" y="38" clip-path="url(#clipPath2)" stroke="none"/>
    </g>
    <g fill="rgb(255,255,153)" text-rendering="geometricPrecision" shape-rendering="geometricPrecision" transform="matrix(1,0,0,1,-187,-38)" stroke="rgb(255,255,153)">
      <path d="M202 160.75 L320 160.75 L320 200.75 L202 200.75 Z" stroke="none" clip-path="url(#clipPath2)"/>
    </g>
    <g text-rendering="geometricPrecision" stroke-miterlimit="1.45" shape-rendering="geometricPrecision" transform="matrix(1,0,0,1,-187,-38)" stroke-linecap="butt">
      <path fill="none" d="M202 160.75 L320 160.75 L320 200.75 L202 200.75 Z" clip-path="url(#clipPath2)"/>
      <text x="223.4648" xml:space="preserve" y="185.2852" clip-path="url(#clipPath2)" font-family="sans-serif" stroke="none">WorkHandler</text>
    </g>
    <g fill="url(#linearGradient1)" text-rendering="geometricPrecision" shape-rendering="geometricPrecision" transform="matrix(1,0,0,1,-187,-38)" stroke="url(#linearGradient1)">
      <rect x="338.25" width="80" height="40" y="160.75" clip-path="url(#clipPath2)" stroke="none"/>
    </g>
    <g text-rendering="geometricPrecision" stroke-miterlimit="1.45" shape-rendering="geometricPrecision" transform="matrix(1,0,0,1,-187,-38)" stroke-linecap="butt">
      <rect fill="none" x="338.25" width="80" height="40" y="160.75" clip-path="url(#clipPath2)"/>
      <path fill="none" d="M348.25 160.75 L348.25 200.75 M408.25 160.75 L408.25 200.75 M348.25 160.75 Z" clip-path="url(#clipPath2)"/>
      <text x="354.9678" xml:space="preserve" y="185.2852" clip-path="url(#clipPath2)" font-family="sans-serif" stroke="none">Request</text>
    </g>
    <g fill="url(#linearGradient2)" text-rendering="geometricPrecision" shape-rendering="geometricPrecision" transform="matrix(1,0,0,1,-187,-38)" stroke="url(#linearGradient2)">
      <path d="M453.45 135.75 L554.5 135.75 L531.55 225.75 L430.5 225.75 Z" stroke="none" clip-path="url(#clipPath2)"/>
    </g>
    <g text-rendering="geometricPrecision" stroke-miterlimit="1.45" shape-rendering="geometricPrecision" transform="matrix(1,0,0,1,-187,-38)" stroke-linecap="butt">
      <path fill="none" d="M453.45 135.75 L554.5 135.75 L531.55 225.75 L430.5 225.75 Z" clip-path="url(#clipPath2)"/>
      <text x="479.8232" xml:space="preserve" y="157.0195" clip-path="url(#clipPath2)" font-family="sans-serif" stroke="none">date</text>
      <text x="484.5869" xml:space="preserve" y="171.1523" clip-path="url(#clipPath2)" font-family="sans-serif" stroke="none">uri</text>
      <text x="486.9893" xml:space="preserve" y="185.2852" clip-path="url(#clipPath2)" font-family="sans-serif" stroke="none">ip</text>
      <text x="455.293" xml:space="preserve" y="199.418" clip-path="url(#clipPath2)" font-family="sans-serif" stroke="none">sessionUser?</text>
      <text x="469.3994" xml:space="preserve" y="213.5508" clip-path="url(#clipPath2)" font-family="sans-serif" stroke="none">creator?</text>
    </g>
    <g text-rendering="geometricPrecision" stroke-miterlimit="1.45" shape-rendering="geometricPrecision" transform="matrix(1,0,0,1,-187,-38)" stroke-linecap="butt">
      <path fill="none" d="M261 268.25 L320 294.25 L261 320.25 L202 294.25 Z" clip-path="url(#clipPath2)"/>
      <text x="223.4033" xml:space="preserve" y="298.7852" clip-path="url(#clipPath2)" font-family="sans-serif" stroke="none">work &amp;&amp; cat?</text>
    </g>
    <g text-rendering="geometricPrecision" stroke-miterlimit="1.45" shape-rendering="geometricPrecision" transform="matrix(1,0,0,1,-187,-38)" stroke-linecap="butt">
      <path fill="none" d="M409 268.25 L468 294.25 L409 320.25 L350 294.25 Z" clip-path="url(#clipPath2)"/>
      <text x="374.7256" xml:space="preserve" y="298.7852" clip-path="url(#clipPath2)" font-family="sans-serif" stroke="none">hasCreator?</text>
    </g>
    <g text-rendering="geometricPrecision" stroke-miterlimit="1.45" shape-rendering="geometricPrecision" transform="matrix(1,0,0,1,-187,-38)" stroke-linecap="butt">
      <path fill="none" d="M576 268.25 L635 294.25 L576 320.25 L517 294.25 Z" clip-path="url(#clipPath2)"/>
      <text x="552.9199" xml:space="preserve" y="291.7188" clip-path="url(#clipPath2)" font-family="sans-serif" stroke="none">work by</text>
      <text x="556.9688" xml:space="preserve" y="305.8516" clip-path="url(#clipPath2)" font-family="sans-serif" stroke="none">RESID?</text>
    </g>
    <g text-rendering="geometricPrecision" stroke-miterlimit="1.45" shape-rendering="geometricPrecision" transform="matrix(1,0,0,1,-187,-38)" stroke-linecap="butt">
      <path fill="none" d="M719 268.25 L778 294.25 L719 320.25 L660 294.25 Z" clip-path="url(#clipPath2)"/>
      <text x="689.0938" xml:space="preserve" y="298.7852" clip-path="url(#clipPath2)" font-family="sans-serif" stroke="none">canonical?</text>
    </g>
    <g text-rendering="geometricPrecision" stroke-miterlimit="1.45" shape-rendering="geometricPrecision" transform="matrix(1,0,0,1,-187,-38)" stroke-linecap="butt">
      <path fill="none" d="M409 344.25 L468 370.25 L409 396.25 L350 370.25 Z" clip-path="url(#clipPath2)"/>
      <text x="388.4307" xml:space="preserve" y="367.7188" clip-path="url(#clipPath2)" font-family="sans-serif" stroke="none">creator</text>
      <text x="385.1113" xml:space="preserve" y="381.8516" clip-path="url(#clipPath2)" font-family="sans-serif" stroke="none">from id?</text>
    </g>
    <g fill="rgb(51,153,102)" text-rendering="geometricPrecision" shape-rendering="geometricPrecision" transform="matrix(1,0,0,1,-187,-38)" stroke="rgb(51,153,102)">
      <rect x="803" y="274.25" clip-path="url(#clipPath2)" width="80" rx="20" ry="20" height="40" stroke="none"/>
    </g>
    <g text-rendering="geometricPrecision" stroke-miterlimit="1.45" shape-rendering="geometricPrecision" transform="matrix(1,0,0,1,-187,-38)" stroke-linecap="butt">
      <rect x="803" y="274.25" clip-path="url(#clipPath2)" fill="none" width="80" rx="20" ry="20" height="40"/>
      <text x="812.6572" y="298.7852" clip-path="url(#clipPath2)" fill="white" font-family="sans-serif" stroke="none" xml:space="preserve">work page</text>
    </g>
    <g fill="url(#linearGradient3)" text-rendering="geometricPrecision" shape-rendering="geometricPrecision" transform="matrix(1,0,0,1,-187,-38)" stroke="url(#linearGradient3)">
      <rect x="671" y="338.25" clip-path="url(#clipPath2)" width="96" rx="9" ry="9" height="18" stroke="none"/>
    </g>
    <g text-rendering="geometricPrecision" stroke-miterlimit="1.45" shape-rendering="geometricPrecision" transform="matrix(1,0,0,1,-187,-38)" stroke-linecap="butt">
      <rect x="671" y="338.25" clip-path="url(#clipPath2)" fill="none" width="96" rx="9" ry="9" height="18"/>
      <text x="681.4854" xml:space="preserve" y="351.7852" clip-path="url(#clipPath2)" font-family="sans-serif" stroke="none">-&gt; canonical</text>
    </g>
    <g fill="rgb(255,255,153)" text-rendering="geometricPrecision" shape-rendering="geometricPrecision" transform="matrix(1,0,0,1,-187,-38)" stroke="rgb(255,255,153)">
      <path d="M202 502.375 L320 502.375 L320 542.375 L202 542.375 Z" stroke="none" clip-path="url(#clipPath2)"/>
    </g>
    <g text-rendering="geometricPrecision" stroke-miterlimit="1.45" shape-rendering="geometricPrecision" transform="matrix(1,0,0,1,-187,-38)" stroke-linecap="butt">
      <path fill="none" d="M202 502.375 L320 502.375 L320 542.375 L202 542.375 Z" clip-path="url(#clipPath2)"/>
      <text x="208.957" xml:space="preserve" y="526.9102" clip-path="url(#clipPath2)" font-family="sans-serif" stroke="none">ExhibitionHandler</text>
    </g>
    <g fill="url(#linearGradient4)" text-rendering="geometricPrecision" shape-rendering="geometricPrecision" transform="matrix(1,0,0,1,-187,-38)" stroke="url(#linearGradient4)">
      <path d="M462.3175 412.125 L532.5 412.125 L522.6825 450.625 L452.5 450.625 Z" stroke="none" clip-path="url(#clipPath2)"/>
    </g>
    <g text-rendering="geometricPrecision" stroke-miterlimit="1.45" shape-rendering="geometricPrecision" transform="matrix(1,0,0,1,-187,-38)" stroke-linecap="butt">
      <path fill="none" d="M462.3175 412.125 L532.5 412.125 L522.6825 450.625 L452.5 450.625 Z" clip-path="url(#clipPath2)"/>
      <text x="471.9307" xml:space="preserve" y="435.9102" clip-path="url(#clipPath2)" font-family="sans-serif" stroke="none">creator</text>
    </g>
    <g fill="url(#linearGradient5)" text-rendering="geometricPrecision" shape-rendering="geometricPrecision" transform="matrix(1,0,0,1,-187,-38)" stroke="url(#linearGradient5)">
      <path d="M605.8175 412.125 L676 412.125 L666.1825 450.625 L596 450.625 Z" stroke="none" clip-path="url(#clipPath2)"/>
    </g>
    <g text-rendering="geometricPrecision" stroke-miterlimit="1.45" shape-rendering="geometricPrecision" transform="matrix(1,0,0,1,-187,-38)" stroke-linecap="butt">
      <path fill="none" d="M605.8175 412.125 L676 412.125 L666.1825 450.625 L596 450.625 Z" clip-path="url(#clipPath2)"/>
      <text x="621.7295" xml:space="preserve" y="435.9102" clip-path="url(#clipPath2)" font-family="sans-serif" stroke="none">work</text>
    </g>
    <g fill="rgb(170,136,113)" text-rendering="geometricPrecision" shape-rendering="geometricPrecision" transform="matrix(1,0,0,1,-187,-38)" stroke="rgb(170,136,113)">
      <path d="M462.5 497.325 C464.3 480.625 520.7 480.625 522.5 497.325 L522.5 547.425 C520.7 564.125 464.3 564.125 462.5 547.425 Z" stroke="none" clip-path="url(#clipPath2)"/>
    </g>
    <g stroke-linecap="butt" transform="matrix(1,0,0,1,-187,-38)" fill="white" text-rendering="geometricPrecision" shape-rendering="geometricPrecision" stroke="white" stroke-miterlimit="1.45">
      <path fill="none" d="M462.5 497.325 C464.3 480.625 520.7 480.625 522.5 497.325 L522.5 547.425 C520.7 564.125 464.3 564.125 462.5 547.425 Z" clip-path="url(#clipPath2)"/>
      <path fill="none" d="M522.5 497.325 C520.7 514.025 464.3 514.025 462.5 497.325" clip-path="url(#clipPath2)"/>
      <text x="471.9307" xml:space="preserve" y="519.8438" clip-path="url(#clipPath2)" font-family="sans-serif" stroke="none">creator</text>
      <text x="477.7139" xml:space="preserve" y="533.9766" clip-path="url(#clipPath2)" font-family="sans-serif" stroke="none">store</text>
    </g>
    <g fill="rgb(170,136,113)" text-rendering="geometricPrecision" shape-rendering="geometricPrecision" transform="matrix(1,0,0,1,-187,-38)" stroke="rgb(170,136,113)">
      <path d="M606 497.325 C607.8 480.625 664.2 480.625 666 497.325 L666 547.425 C664.2 564.125 607.8 564.125 606 547.425 Z" stroke="none" clip-path="url(#clipPath2)"/>
    </g>
    <g stroke-linecap="butt" transform="matrix(1,0,0,1,-187,-38)" fill="white" text-rendering="geometricPrecision" shape-rendering="geometricPrecision" stroke="white" stroke-miterlimit="1.45">
      <path fill="none" d="M606 497.325 C607.8 480.625 664.2 480.625 666 497.325 L666 547.425 C664.2 564.125 607.8 564.125 606 547.425 Z" clip-path="url(#clipPath2)"/>
      <path fill="none" d="M666 497.325 C664.2 514.025 607.8 514.025 606 497.325" clip-path="url(#clipPath2)"/>
      <text x="621.7295" xml:space="preserve" y="519.8438" clip-path="url(#clipPath2)" font-family="sans-serif" stroke="none">work</text>
      <text x="621.2139" xml:space="preserve" y="533.9766" clip-path="url(#clipPath2)" font-family="sans-serif" stroke="none">store</text>
    </g>
    <g fill="url(#linearGradient6)" text-rendering="geometricPrecision" shape-rendering="geometricPrecision" transform="matrix(1,0,0,1,-187,-38)" stroke="url(#linearGradient6)">
      <path d="M807.01 433.625 L905 433.625 L878.99 535.625 L781 535.625 Z" stroke="none" clip-path="url(#clipPath2)"/>
    </g>
    <g text-rendering="geometricPrecision" stroke-miterlimit="1.45" shape-rendering="geometricPrecision" transform="matrix(1,0,0,1,-187,-38)" stroke-linecap="butt">
      <path fill="none" d="M807.01 433.625 L905 433.625 L878.99 535.625 L781 535.625 Z" clip-path="url(#clipPath2)"/>
      <text x="830.3232" xml:space="preserve" y="453.8281" clip-path="url(#clipPath2)" font-family="sans-serif" stroke="none">date</text>
      <text x="835.0869" xml:space="preserve" y="467.9609" clip-path="url(#clipPath2)" font-family="sans-serif" stroke="none">uri</text>
      <text x="837.4893" xml:space="preserve" y="482.0938" clip-path="url(#clipPath2)" font-family="sans-serif" stroke="none">ip</text>
      <text x="805.793" xml:space="preserve" y="496.2266" clip-path="url(#clipPath2)" font-family="sans-serif" stroke="none">sessionUser?</text>
      <text x="822.4307" xml:space="preserve" y="510.3594" clip-path="url(#clipPath2)" font-family="sans-serif" stroke="none">creator</text>
      <text x="828.7295" xml:space="preserve" y="524.4922" clip-path="url(#clipPath2)" font-family="sans-serif" stroke="none">work</text>
    </g>
    <g fill="url(#linearGradient7)" text-rendering="geometricPrecision" shape-rendering="geometricPrecision" transform="matrix(1,0,0,1,-187,-38)" stroke="url(#linearGradient7)">
      <rect x="803" width="80" height="40" y="363.625" clip-path="url(#clipPath2)" stroke="none"/>
    </g>
    <g text-rendering="geometricPrecision" stroke-miterlimit="1.45" shape-rendering="geometricPrecision" transform="matrix(1,0,0,1,-187,-38)" stroke-linecap="butt">
      <rect fill="none" x="803" width="80" height="40" y="363.625" clip-path="url(#clipPath2)"/>
      <path fill="none" d="M813 363.625 L813 403.625 M873 363.625 L873 403.625 M813 363.625 Z" clip-path="url(#clipPath2)"/>
      <text x="819.7178" xml:space="preserve" y="388.1602" clip-path="url(#clipPath2)" font-family="sans-serif" stroke="none">Request</text>
    </g>
    <g fill="red" text-rendering="geometricPrecision" shape-rendering="geometricPrecision" transform="matrix(1,0,0,1,-187,-38)" stroke="red">
      <circle r="9.25" clip-path="url(#clipPath2)" cx="409" cy="350.25" stroke="none"/>
    </g>
    <g stroke-linecap="butt" transform="matrix(1,0,0,1,-187,-38)" fill="white" text-rendering="geometricPrecision" shape-rendering="geometricPrecision" stroke="white" stroke-miterlimit="1.45">
      <circle fill="none" r="9.25" clip-path="url(#clipPath2)" cx="409" cy="350.25"/>
      <text x="405.2061" xml:space="preserve" y="354.7852" clip-path="url(#clipPath2)" font-family="sans-serif" stroke="none">2</text>
    </g>
    <g fill="red" text-rendering="geometricPrecision" shape-rendering="geometricPrecision" transform="matrix(1,0,0,1,-187,-38)" stroke="red">
      <circle r="9.25" clip-path="url(#clipPath2)" cx="576" cy="272.75" stroke="none"/>
    </g>
    <g stroke-linecap="butt" transform="matrix(1,0,0,1,-187,-38)" fill="white" text-rendering="geometricPrecision" shape-rendering="geometricPrecision" stroke="white" stroke-miterlimit="1.45">
      <circle fill="none" r="9.25" clip-path="url(#clipPath2)" cx="576" cy="272.75"/>
      <text x="572.2061" xml:space="preserve" y="277.2852" clip-path="url(#clipPath2)" font-family="sans-serif" stroke="none">2</text>
    </g>
    <g fill="rgb(153,204,0)" text-rendering="geometricPrecision" shape-rendering="geometricPrecision" transform="matrix(1,0,0,1,-187,-38)" stroke="rgb(153,204,0)">
      <circle r="9.25" clip-path="url(#clipPath2)" cx="261" cy="275.75" stroke="none"/>
    </g>
    <g stroke-linecap="butt" transform="matrix(1,0,0,1,-187,-38)" fill="white" text-rendering="geometricPrecision" shape-rendering="geometricPrecision" stroke="white" stroke-miterlimit="1.45">
      <circle fill="none" r="9.25" clip-path="url(#clipPath2)" cx="261" cy="275.75"/>
      <text x="257.2061" xml:space="preserve" y="280.2852" clip-path="url(#clipPath2)" font-family="sans-serif" stroke="none">3</text>
    </g>
    <g fill="rgb(153,51,102)" text-rendering="geometricPrecision" shape-rendering="geometricPrecision" transform="matrix(1,0,0,1,-187,-38)" stroke="rgb(153,51,102)">
      <circle r="9.25" clip-path="url(#clipPath2)" cx="409" cy="273.5" stroke="none"/>
    </g>
    <g stroke-linecap="butt" transform="matrix(1,0,0,1,-187,-38)" fill="white" text-rendering="geometricPrecision" shape-rendering="geometricPrecision" stroke="white" stroke-miterlimit="1.45">
      <circle fill="none" r="9.25" clip-path="url(#clipPath2)" cx="409" cy="273.5"/>
      <text x="405.2061" xml:space="preserve" y="278.0352" clip-path="url(#clipPath2)" font-family="sans-serif" stroke="none">4</text>
    </g>
    <g fill="rgb(153,204,0)" text-rendering="geometricPrecision" shape-rendering="geometricPrecision" transform="matrix(1,0,0,1,-187,-38)" stroke="rgb(153,204,0)">
      <circle r="9.25" clip-path="url(#clipPath2)" cx="719" cy="273.5" stroke="none"/>
    </g>
    <g stroke-linecap="butt" transform="matrix(1,0,0,1,-187,-38)" fill="white" text-rendering="geometricPrecision" shape-rendering="geometricPrecision" stroke="white" stroke-miterlimit="1.45">
      <circle fill="none" r="9.25" clip-path="url(#clipPath2)" cx="719" cy="273.5"/>
      <text x="715.2061" xml:space="preserve" y="278.0352" clip-path="url(#clipPath2)" font-family="sans-serif" stroke="none">3</text>
    </g>
    <g fill="rgb(255,255,153)" text-rendering="geometricPrecision" shape-rendering="geometricPrecision" transform="matrix(1,0,0,1,-187,-38)" stroke="rgb(255,255,153)">
      <path d="M388.5 412.125 L429.5 412.125 L429.5 431.125 L388.5 431.125 Z" stroke="none" clip-path="url(#clipPath2)"/>
    </g>
    <g text-rendering="geometricPrecision" stroke-miterlimit="1.45" shape-rendering="geometricPrecision" transform="matrix(1,0,0,1,-187,-38)" stroke-linecap="butt">
      <path fill="none" d="M388.5 412.125 L429.5 412.125 L429.5 431.125 L388.5 431.125 Z" clip-path="url(#clipPath2)"/>
      <text x="396.0098" xml:space="preserve" y="426.1602" clip-path="url(#clipPath2)" font-family="sans-serif" stroke="none">next</text>
    </g>
    <g fill="rgb(255,255,153)" text-rendering="geometricPrecision" shape-rendering="geometricPrecision" transform="matrix(1,0,0,1,-187,-38)" stroke="rgb(255,255,153)">
      <path d="M557.5 344.25 L598.5 344.25 L598.5 363.25 L557.5 363.25 Z" stroke="none" clip-path="url(#clipPath2)"/>
    </g>
    <g text-rendering="geometricPrecision" stroke-miterlimit="1.45" shape-rendering="geometricPrecision" transform="matrix(1,0,0,1,-187,-38)" stroke-linecap="butt">
      <path fill="none" d="M557.5 344.25 L598.5 344.25 L598.5 363.25 L557.5 363.25 Z" clip-path="url(#clipPath2)"/>
      <text x="565.0098" xml:space="preserve" y="358.2852" clip-path="url(#clipPath2)" font-family="sans-serif" stroke="none">next</text>
    </g>
    <g fill="red" text-rendering="geometricPrecision" shape-rendering="geometricPrecision" transform="matrix(1,0,0,1,-187,-38)" stroke="red">
      <circle r="9.25" clip-path="url(#clipPath2)" cx="647.5" cy="100.75" stroke="none"/>
    </g>
    <g stroke-linecap="butt" transform="matrix(1,0,0,1,-187,-38)" fill="white" text-rendering="geometricPrecision" shape-rendering="geometricPrecision" stroke="white" stroke-miterlimit="1.45">
      <circle fill="none" r="9.25" clip-path="url(#clipPath2)" cx="647.5" cy="100.75"/>
      <text x="662.75" y="105.2852" clip-path="url(#clipPath2)" fill="black" font-family="sans-serif" stroke="none" xml:space="preserve">(2) data access</text>
    </g>
    <g fill="aqua" text-rendering="geometricPrecision" shape-rendering="geometricPrecision" transform="matrix(1,0,0,1,-187,-38)" stroke="aqua">
      <circle r="9.25" clip-path="url(#clipPath2)" cx="647.5" cy="73.25" stroke="none"/>
    </g>
    <g stroke-linecap="butt" transform="matrix(1,0,0,1,-187,-38)" fill="white" text-rendering="geometricPrecision" shape-rendering="geometricPrecision" stroke="white" stroke-miterlimit="1.45">
      <circle fill="none" r="9.25" clip-path="url(#clipPath2)" cx="647.5" cy="73.25"/>
      <text x="662.75" y="77.7852" clip-path="url(#clipPath2)" fill="black" font-family="sans-serif" stroke="none" xml:space="preserve">(1) session state</text>
    </g>
    <g fill="rgb(51,153,102)" text-rendering="geometricPrecision" shape-rendering="geometricPrecision" transform="matrix(1,0,0,1,-187,-38)" stroke="rgb(51,153,102)">
      <circle r="9.25" clip-path="url(#clipPath2)" cx="647.5" cy="176.25" stroke="none"/>
    </g>
    <g stroke-linecap="butt" transform="matrix(1,0,0,1,-187,-38)" fill="white" text-rendering="geometricPrecision" shape-rendering="geometricPrecision" stroke="white" stroke-miterlimit="1.45">
      <circle fill="none" r="9.25" clip-path="url(#clipPath2)" cx="647.5" cy="176.25"/>
      <text x="662.75" y="180.7852" clip-path="url(#clipPath2)" fill="black" font-family="sans-serif" stroke="none" xml:space="preserve">(5) rules</text>
    </g>
    <g fill="rgb(153,204,0)" text-rendering="geometricPrecision" shape-rendering="geometricPrecision" transform="matrix(1,0,0,1,-187,-38)" stroke="rgb(153,204,0)">
      <circle r="9.25" clip-path="url(#clipPath2)" cx="647.5" cy="124.75" stroke="none"/>
    </g>
    <g stroke-linecap="butt" transform="matrix(1,0,0,1,-187,-38)" fill="white" text-rendering="geometricPrecision" shape-rendering="geometricPrecision" stroke="white" stroke-miterlimit="1.45">
      <circle fill="none" r="9.25" clip-path="url(#clipPath2)" cx="647.5" cy="124.75"/>
      <text x="662.75" y="129.2852" clip-path="url(#clipPath2)" fill="black" font-family="sans-serif" stroke="none" xml:space="preserve">(3) url path</text>
    </g>
    <g fill="rgb(153,51,102)" text-rendering="geometricPrecision" shape-rendering="geometricPrecision" transform="matrix(1,0,0,1,-187,-38)" stroke="rgb(153,51,102)">
      <circle r="9.25" clip-path="url(#clipPath2)" cx="647.5" cy="150.75" stroke="none"/>
    </g>
    <g stroke-linecap="butt" transform="matrix(1,0,0,1,-187,-38)" fill="white" text-rendering="geometricPrecision" shape-rendering="geometricPrecision" stroke="white" stroke-miterlimit="1.45">
      <circle fill="none" r="9.25" clip-path="url(#clipPath2)" cx="647.5" cy="150.75"/>
      <text x="662.75" y="155.2852" clip-path="url(#clipPath2)" fill="black" font-family="sans-serif" stroke="none" xml:space="preserve">(4) Request property</text>
    </g>
    <g fill="rgb(153,51,0)" text-rendering="geometricPrecision" shape-rendering="geometricPrecision" transform="matrix(1,0,0,1,-187,-38)" stroke="rgb(153,51,0)">
      <circle r="9.25" clip-path="url(#clipPath2)" cx="647.5" cy="200.75" stroke="none"/>
    </g>
    <g stroke-linecap="butt" transform="matrix(1,0,0,1,-187,-38)" fill="white" text-rendering="geometricPrecision" shape-rendering="geometricPrecision" stroke="white" stroke-miterlimit="1.45">
      <circle fill="none" r="9.25" clip-path="url(#clipPath2)" cx="647.5" cy="200.75"/>
      <text x="662.75" y="205.2852" clip-path="url(#clipPath2)" fill="black" font-family="sans-serif" stroke="none" xml:space="preserve">(6) post parameters</text>
    </g>
    <g text-rendering="geometricPrecision" stroke-miterlimit="1.45" shape-rendering="geometricPrecision" transform="matrix(1,0,0,1,-187,-38)" stroke-linecap="butt">
      <path fill="none" d="M319.9971 180.75 L338.2296 180.75" clip-path="url(#clipPath2)"/>
    </g>
    <g text-rendering="geometricPrecision" stroke-miterlimit="1.45" shape-rendering="geometricPrecision" transform="matrix(1,0,0,1,-187,-38)" stroke-linecap="butt">
      <path fill="none" d="M418.2766 180.75 L441.9425 180.75" clip-path="url(#clipPath2)"/>
      <path fill="none" d="M261 200.7289 L261 268.2668" clip-path="url(#clipPath2)"/>
      <path fill="none" d="M320.0049 294.25 L350.032 294.25" clip-path="url(#clipPath2)"/>
      <text x="320.4639" xml:space="preserve" y="284.5352" clip-path="url(#clipPath2)" font-family="sans-serif" stroke="none">yes</text>
      <path fill="none" d="M467.9963 294.25 L517.0146 294.25" clip-path="url(#clipPath2)"/>
      <path fill="none" d="M634.9666 294.25 L660.037 294.25" clip-path="url(#clipPath2)"/>
      <path fill="none" d="M409 320.2856 L409 344.2227" clip-path="url(#clipPath2)"/>
      <path fill="none" d="M468.0215 370.25 L493 370.25 L493 294.25 L517.0327 294.25" clip-path="url(#clipPath2)"/>
      <path fill="none" d="M778.0029 294.25 L802.9799 294.25" clip-path="url(#clipPath2)"/>
      <path fill="none" d="M719 320.2583 L719 338.2616" clip-path="url(#clipPath2)"/>
      <path fill="none" d="M767.0225 347.25 L789 347.25 L816.9087 319.8581" clip-path="url(#clipPath2)"/>
      <path d="M822.6182 314.2544 L810.5516 319.0916 L816.195 320.5586 L817.5563 326.2284 Z" clip-path="url(#clipPath2)" stroke="none"/>
      <path fill="none" d="M261 320.2315 L261 502.3877" clip-path="url(#clipPath2)"/>
      <text x="238.5908" xml:space="preserve" y="341.5352" clip-path="url(#clipPath2)" font-family="sans-serif" stroke="none">no</text>
      <path fill="none" d="M447.366 379.3246 L492.5 390 L492.5 412.1017" stroke-width="2" clip-path="url(#clipPath2)" stroke="rgb(51,102,255)"/>
      <path fill="none" d="M609.7793 305.369 L636 314 L636 412.1468" stroke-width="2" clip-path="url(#clipPath2)" stroke="rgb(51,102,255)"/>
      <path fill="none" d="M527.5692 431.375 L600.9241 431.375" clip-path="url(#clipPath2)"/>
      <path fill="none" d="M492.5 450.6147 L492.5 484.778" clip-path="url(#clipPath2)"/>
      <path fill="none" d="M636 450.6147 L636 484.778" clip-path="url(#clipPath2)"/>
      <path fill="none" d="M843 314.2808 L843 363.614" clip-path="url(#clipPath2)"/>
      <path fill="none" d="M671.1313 431.375 L723 431.375 L766 383.625 L803.0337 383.625" clip-path="url(#clipPath2)"/>
      <path fill="none" d="M843 403.5981 L843 433.6271" clip-path="url(#clipPath2)"/>
      <path fill="none" d="M409 396.2636 L409 412.164" clip-path="url(#clipPath2)"/>
      <path fill="none" d="M576.8604 319.8455 L577.6806 344.2475" clip-path="url(#clipPath2)"/>
    </g>
  </g>
</svg>
